<?xml version="1.0" encoding="utf-8"?>
<!-- Generator: Adobe Illustrator 19.0.0, SVG Export Plug-In . SVG Version: 6.00 Build 0)  -->
<svg version="1.1" id="Layer_1" xmlns="http://www.w3.org/2000/svg" xmlns:xlink="http://www.w3.org/1999/xlink" x="0px" y="0px"
	 viewBox="-980.8 987.2 27.7 27.7" style="enable-background:new -980.8 987.2 27.7 27.7;" xml:space="preserve">
<style type="text/css">
	.st0{fill:#FFFFFF;}
</style>
<path class="st0" d="M-967,987.7c-7.4,0-13.3,6-13.3,13.3c0,7.4,6,13.3,13.3,13.3c7.4,0,13.3-6,13.3-13.3
	C-953.7,993.6-959.6,987.7-967,987.7z M-967,991.7c2.2,0,4,1.8,4,4c0,2.2-1.8,4-4,4c-2.2,0-4-1.8-4-4
	C-971,993.5-969.2,991.7-967,991.7z M-967,1010.6c-3.3,0-6.3-1.7-8-4.3c0-2.6,5.3-4.1,8-4.1c2.7,0,8,1.5,8,4.1
	C-960.7,1008.9-963.7,1010.6-967,1010.6z"/>
</svg>
