<?xml version="1.0" encoding="utf-8"?>
<!-- Generator: Adobe Illustrator 19.0.0, SVG Export Plug-In . SVG Version: 6.00 Build 0)  -->
<svg version="1.1" id="Capa_1" xmlns="http://www.w3.org/2000/svg" xmlns:xlink="http://www.w3.org/1999/xlink" x="0px" y="0px"
	 viewBox="-49 141 512 512" style="enable-background:new -49 141 512 512;" xml:space="preserve">
<g>
	<path d="M266,505.5c-11.5,8.3-26.1,13.4-43.8,15.2V557h-30.3v-36c-39.7-4.1-64.2-27.1-73.7-69.1l46.9-12.2
		c4.3,26.4,18.7,39.6,43.1,39.6c10.6,0,18.7-2.4,24.1-7.4l-73.8-73.8l0,0c-8.7-5.2-15.8-12.4-21.5-21.5L2.9,242.4
		C-29.7,285.4-49,338.9-49,397c0,141.4,114.6,256,256,256c58.1,0,111.6-19.3,154.6-51.9L266,505.5z"/>
	<path d="M146.1,286.7c10.5-11.7,25.8-18.9,45.8-21.7v-28h30.3v28c33.9,4.1,55.8,23.2,65.8,57.5l-41.8,17.1
		c-8.2-23.5-20.7-35.2-37.8-35.2c-8.6,0-15.4,2.6-20.6,7.9c-2.9,2.9-5,6.3-6.3,9.9l44.1,44.1c15.1,5.7,27.2,11.2,36.3,16.4
		c10.2,5.8,18.4,13.9,24.5,24.2c5,8.5,8,18.2,8.9,29.1l115.6,115.6c32.6-43,51.9-96.5,51.9-154.6c0-141.4-114.6-256-256-256
		c-58.1,0-111.6,19.3-154.6,51.9L146.1,286.7z"/>
</g>
</svg>
